<?xml version="1.0" encoding="utf-8"?>
<!-- Generator: Adobe Illustrator 27.2.0, SVG Export Plug-In . SVG Version: 6.00 Build 0)  -->
<svg version="1.1" id="Calque_1" xmlns="http://www.w3.org/2000/svg" xmlns:xlink="http://www.w3.org/1999/xlink" x="0px" y="0px" height="20" width="20"
	 viewBox="0 0 48 48" style="enable-background:new 0 0 48 48;" xml:space="preserve">
<path d="M5.9,8.9c0-0.8,0.3-1.5,0.9-2.1c0.6-0.6,1.3-0.9,2.1-0.9h5.3v3H8.9v30H39v-30h-5.5v-3H39c0.8,0,1.5,0.3,2.1,0.9
	C41.8,7.4,42,8.2,42,8.9v30c0,0.8-0.3,1.5-0.9,2.1C40.5,41.7,39.8,42,39,42H8.9c-0.8,0-1.5-0.3-2.1-0.9c-0.6-0.6-0.9-1.3-0.9-2.1
	V8.9z M33.5,15.5l-2.2,2.3l-5.9-5.9v18.3h-3V11.9l-5.9,5.9l-2.2-2.3L24,5.9L33.5,15.5z"/>
</svg>
