<svg width="20" height="20" viewBox="0 0 20 20" fill="none" xmlns="http://www.w3.org/2000/svg">
<path d="M9.8371 0.624999C9.29938 0.624999 8.68687 0.700744 8.05809 0.927977C7.97405 0.958374 7.91042 1.03113 7.88938 1.12116L7.40204 3.20065C7.259 3.25995 7.11756 3.32439 6.97898 3.39316L5.28225 2.35284C5.20826 2.30732 5.11768 2.30267 5.0397 2.34005C4.97001 2.37343 3.32336 3.17938 2.46861 5.01552C2.42986 5.09891 2.43417 5.19724 2.48041 5.27648L3.54725 7.10564C3.48665 7.25231 3.4302 7.40214 3.37869 7.55363L1.4729 8.06773C1.38982 8.09015 1.32253 8.15344 1.2927 8.23732C1.26607 8.31223 0.648777 10.0951 1.29095 12.0229C1.32013 12.1104 1.38998 12.1767 1.47641 12.1986L3.47262 12.7062C3.52955 12.8552 3.59142 13.0026 3.65744 13.1471L2.6587 14.9145C2.61516 14.9915 2.61054 15.0859 2.64642 15.1671C2.67847 15.2397 3.45221 16.9549 5.21495 17.8452C5.29501 17.8858 5.38941 17.8811 5.46532 17.8329L7.22137 16.7217C7.36218 16.7848 7.50602 16.8436 7.65145 16.8973L8.14484 18.8824C8.16637 18.9689 8.22729 19.039 8.30766 19.0701C8.37958 19.0978 10.0911 19.7408 11.9419 19.0719C12.0259 19.0415 12.0896 18.9688 12.1106 18.8788L12.598 16.7993C12.741 16.74 12.8824 16.6755 13.021 16.6068L14.7178 17.6471C14.7917 17.6924 14.8823 17.6972 14.9603 17.6599C15.03 17.6265 16.6766 16.8205 17.5314 14.9844C17.5701 14.901 17.5658 14.8028 17.5196 14.7236L16.4528 12.8944C16.5133 12.7478 16.5698 12.5979 16.6213 12.4465L18.5271 11.9324C18.6102 11.9099 18.6775 11.8466 18.7073 11.7628C18.7339 11.6878 19.3512 9.90503 18.7091 7.9772C18.6799 7.88966 18.61 7.82338 18.5236 7.80146L16.5274 7.29367C16.4705 7.14467 16.4086 6.99734 16.3426 6.85299L17.3413 5.08562C17.3848 5.00855 17.3895 4.9142 17.3536 4.83297C17.3215 4.76038 16.5478 3.04517 14.785 2.15484C14.705 2.11431 14.6107 2.11913 14.5347 2.16713L12.7786 3.27838C12.6378 3.2151 12.494 3.15646 12.3485 3.10281L11.855 1.11767C11.8335 1.03113 11.7726 0.961032 11.6922 0.92997C11.6447 0.911699 10.8821 0.625166 9.83694 0.625166L9.8371 0.624999ZM10.0002 6.42759C8.10912 6.42759 6.57074 8.03019 6.57074 9.99987C6.57074 11.9696 8.10928 13.5722 10.0002 13.5722C11.8912 13.5722 13.4297 11.9696 13.4297 9.99987C13.4297 8.03019 11.8912 6.42759 10.0002 6.42759V6.42759Z" stroke="#333333" stroke-miterlimit="10"/>
</svg>
