<svg width="18" height="18" viewBox="0 0 24 24" fill="none" xmlns="http://www.w3.org/2000/svg">
<path fill-rule="evenodd" clip-rule="evenodd" d="M16 1.75V3H21.25C21.4489 3 21.6397 3.07902 21.7803 3.21967C21.921 3.36032 22 3.55109 22 3.75C22 3.94891 21.921 4.13968 21.7803 4.28033C21.6397 4.42098 21.4489 4.5 21.25 4.5H2.75C2.55109 4.5 2.36032 4.42098 2.21967 4.28033C2.07902 4.13968 2 3.94891 2 3.75C2 3.55109 2.07902 3.36032 2.21967 3.21967C2.36032 3.07902 2.55109 3 2.75 3H8V1.75C8 0.784 8.784 0 9.75 0H14.25C15.216 0 16 0.784 16 1.75ZM9.5 1.75C9.5 1.6837 9.52634 1.62011 9.57322 1.57322C9.62011 1.52634 9.6837 1.5 9.75 1.5H14.25C14.3163 1.5 14.3799 1.52634 14.4268 1.57322C14.4737 1.62011 14.5 1.6837 14.5 1.75V3H9.5V1.75Z" />
<path d="M4.9972 6.17749C4.98865 6.07875 4.96062 5.98268 4.91472 5.89484C4.86882 5.807 4.80597 5.72913 4.72979 5.66573C4.65361 5.60233 4.56563 5.55465 4.47092 5.52546C4.37621 5.49627 4.27665 5.48614 4.178 5.49565C4.07935 5.50517 3.98356 5.53414 3.89617 5.5809C3.80879 5.62765 3.73154 5.69126 3.66888 5.76806C3.60623 5.84485 3.55941 5.9333 3.53115 6.02829C3.50288 6.12328 3.49373 6.22293 3.5042 6.32149L4.9162 20.9195C4.95844 21.3522 5.16021 21.7537 5.48223 22.0457C5.80425 22.3378 6.22346 22.4996 6.6582 22.4995H17.3422C17.7771 22.4995 18.1964 22.3376 18.5185 22.0454C18.8405 21.7531 19.0422 21.3514 19.0842 20.9185L20.4972 6.32149C20.5163 6.12337 20.4559 5.92578 20.3293 5.77219C20.2027 5.6186 20.0203 5.52158 19.8222 5.50249C19.6241 5.48339 19.4265 5.54378 19.2729 5.67036C19.1193 5.79695 19.0223 5.97937 19.0032 6.17749L17.5912 20.7735C17.5852 20.8354 17.5564 20.8928 17.5104 20.9346C17.4643 20.9764 17.4044 20.9995 17.3422 20.9995H6.6582C6.59603 20.9995 6.53607 20.9764 6.49003 20.9346C6.44399 20.8928 6.41517 20.8354 6.4092 20.7735L4.9972 6.17749Z" />
<path d="M9.20536 7.50179C9.30372 7.49597 9.40227 7.5096 9.49537 7.54189C9.58847 7.57418 9.6743 7.62449 9.74795 7.68997C9.82159 7.75544 9.88161 7.83478 9.92458 7.92346C9.96754 8.01214 9.99261 8.10842 9.99835 8.20679L10.4984 16.7068C10.51 16.9056 10.4423 17.1008 10.3099 17.2497C10.1776 17.3985 9.99163 17.4886 9.79285 17.5003C9.59408 17.512 9.3988 17.4442 9.24999 17.3119C9.10118 17.1796 9.01102 16.9936 8.99935 16.7948L8.49935 8.29479C8.49354 8.19642 8.50716 8.09787 8.53945 8.00477C8.57174 7.91167 8.62206 7.82585 8.68753 7.7522C8.753 7.67856 8.83235 7.61854 8.92102 7.57557C9.0097 7.5326 9.10598 7.50753 9.20435 7.50179H9.20536ZM15.4984 8.29479C15.51 8.09601 15.4423 7.90074 15.3099 7.75193C15.1776 7.60312 14.9916 7.51296 14.7929 7.50129C14.5941 7.48962 14.3988 7.5574 14.25 7.6897C14.1012 7.82201 14.011 8.00801 13.9994 8.20679L13.4994 16.7068C13.4877 16.9054 13.5554 17.1006 13.6876 17.2493C13.8198 17.398 14.0057 17.4881 14.2044 17.4998C14.403 17.5115 14.5981 17.4437 14.7469 17.3115C14.8956 17.1793 14.9857 16.9934 14.9974 16.7948L15.4974 8.29479H15.4984Z" />
</svg>
