<svg width="30" height="30" viewBox="0 0 25 25" fill="none" xmlns="http://www.w3.org/2000/svg">
<path d="M13.799 3.25L21.1603 16C21.7376 17 21.0159 18.25 19.8612 18.25H5.13878C3.98408 18.25 3.2624 17 3.83975 16L11.201 3.25C11.7783 2.25 13.2217 2.25 13.799 3.25Z" stroke="#FF575C"/>
<path d="M12.9736 7.89062L12.9102 12.9932H12.0947L12.0264 7.89062H12.9736ZM11.9971 14.5459C11.9971 14.3994 12.041 14.2757 12.1289 14.1748C12.2201 14.0739 12.3535 14.0234 12.5293 14.0234C12.7018 14.0234 12.8337 14.0739 12.9248 14.1748C13.0192 14.2757 13.0664 14.3994 13.0664 14.5459C13.0664 14.6859 13.0192 14.8063 12.9248 14.9072C12.8337 15.0081 12.7018 15.0586 12.5293 15.0586C12.3535 15.0586 12.2201 15.0081 12.1289 14.9072C12.041 14.8063 11.9971 14.6859 11.9971 14.5459Z" fill="#FF575C"/>
</svg>
