<?xml version="1.0" encoding="utf-8"?>
<!-- Generator: Adobe Illustrator 27.2.0, SVG Export Plug-In . SVG Version: 6.00 Build 0)  -->
<svg version="1.1" id="Calque_1" xmlns="http://www.w3.org/2000/svg" xmlns:xlink="http://www.w3.org/1999/xlink" x="0px" y="0px" height="20" width="20"
	 viewBox="0 0 48 48" style="enable-background:new 0 0 48 48;" xml:space="preserve">
<path d="M6,8.9c0-0.8,0.3-1.5,0.9-2.1s1.3-0.9,2.1-0.9h10.5v3H8.9v30H39v-30H28.5v-3H39c0.8,0,1.5,0.3,2.1,0.9
	C41.8,7.4,42,8.1,42,8.9v30c0,0.8-0.3,1.5-0.9,2.1C40.5,41.7,39.9,42,39,42H8.9c-0.8,0-1.5-0.3-2.1-0.9C6.2,40.5,6,39.8,6,39V8.9z
	 M14.3,20.6l2.3-2.2l5.9,5.9V5.9h3v18.3l5.9-5.9l2.3,2.2L24,30.2L14.3,20.6z"/>
</svg>
