<svg width="129" height="129" viewBox="0 0 129 129" fill="none" xmlns="http://www.w3.org/2000/svg">
<rect x="0.604492" y="0.953125" width="128" height="128" rx="6" fill="#F46E6E"/>
<path fill-rule="evenodd" clip-rule="evenodd" d="M67.8008 90.1747C76.0033 90.1747 82.6528 83.5253 82.6528 75.3228C82.6528 67.1203 76.0033 60.4708 67.8008 60.4708C59.5983 60.4708 52.9488 67.1203 52.9488 75.3228C52.9488 83.5253 59.5983 90.1747 67.8008 90.1747ZM67.8008 107.997C85.8463 107.997 100.475 93.3683 100.475 75.3228C100.475 57.2772 85.8463 42.6484 67.8008 42.6484C49.7553 42.6484 35.1265 57.2772 35.1265 75.3228C35.1265 93.3683 49.7553 107.997 67.8008 107.997Z" fill="white"/>
<path d="M35.1265 113.937V15.9141L52.9488 24.8252V105.026L35.1265 113.937Z" fill="white"/>
<path fill-rule="evenodd" clip-rule="evenodd" d="M67.8008 90.1747C76.0033 90.1747 82.6528 83.5253 82.6528 75.3228C82.6528 67.1203 76.0033 60.4708 67.8008 60.4708C59.5983 60.4708 52.9488 67.1203 52.9488 75.3228C52.9488 83.5253 59.5983 90.1747 67.8008 90.1747ZM67.8008 107.997C85.8463 107.997 100.475 93.3683 100.475 75.3228C100.475 57.2772 85.8463 42.6484 67.8008 42.6484C49.7553 42.6484 35.1265 57.2772 35.1265 75.3228C35.1265 93.3683 49.7553 107.997 67.8008 107.997Z" fill="#54BEFA" fill-opacity="0.5"/>
<path d="M35.1265 113.937V15.9141L52.9488 24.8252V105.026L35.1265 113.937Z" fill="#EE8CFF" fill-opacity="0.5"/>
<path d="M38.1264 55.5468L38.1264 55.5573C41.2896 50.8493 45.4448 46.9942 49.9487 44.4134L49.9487 29.3508C48.4777 30.2413 46.7615 31.3788 45.0419 32.5654C42.9641 33.9993 40.9373 35.4662 39.4262 36.5775C38.931 36.9417 38.4922 37.267 38.1264 37.5394L38.1264 37.5771L38.1264 37.6499L38.1264 37.7231L38.1264 37.7968L38.1264 37.8709L38.1264 37.9455L38.1264 38.0206L38.1264 38.0961L38.1264 38.1721L38.1264 38.2486L38.1264 38.3254L38.1264 38.4028L38.1264 38.4805L38.1264 38.5587L38.1264 38.6373L38.1264 38.7164L38.1264 38.7959L38.1264 38.8758L38.1264 38.9562L38.1264 39.037L38.1264 39.1181L38.1264 39.1998L38.1264 39.2818L38.1264 39.3642L38.1264 39.447L38.1264 39.5303L38.1264 39.6139L38.1264 39.698L38.1264 39.7824L38.1264 39.8672L38.1264 39.9525L38.1264 40.0381L38.1264 40.1241L38.1264 40.2104L38.1264 40.2972L38.1264 40.3843L38.1264 40.4718L38.1264 40.5597L38.1264 40.648L38.1264 40.7366L38.1264 40.8255L38.1264 40.9149L38.1264 41.0046L38.1264 41.0946L38.1264 41.185L38.1264 41.2758L38.1264 41.3668L38.1264 41.4583L38.1264 41.5501L38.1264 41.6422L38.1264 41.7346L38.1264 41.8274L38.1264 41.9205L38.1264 42.0139L38.1264 42.1077L38.1264 42.2017L38.1264 42.2961L38.1264 42.3908L38.1264 42.4859L38.1264 42.5812L38.1264 42.6768L38.1264 42.7728L38.1264 42.869L38.1264 42.9655L38.1264 43.0624L38.1264 43.1595L38.1264 43.2569L38.1264 43.3546L38.1264 43.4526L38.1264 43.5509L38.1264 43.6494L38.1264 43.7482L38.1264 43.8473L38.1264 43.9467L38.1264 44.0463L38.1264 44.1462L38.1264 44.2463L38.1264 44.3467L38.1264 44.4474L38.1264 44.5483L38.1264 44.6495L38.1264 44.7509L38.1264 44.8526L38.1264 44.9545L38.1264 45.0566L38.1264 45.159L38.1264 45.2616L38.1264 45.3645L38.1264 45.4675L38.1264 45.5708L38.1264 45.6743L38.1264 45.7781L38.1264 45.882L38.1264 45.9862L38.1264 46.0906L38.1264 46.1951L38.1264 46.2999L38.1264 46.4049L38.1264 46.5101L38.1264 46.6155L38.1264 46.7211L38.1264 46.8269L38.1264 46.9328L38.1264 47.039L38.1264 47.1453L38.1264 47.2518L38.1264 47.3585L38.1264 47.4653L38.1264 47.5724L38.1264 47.6796L38.1264 47.7869L38.1264 47.8945L38.1264 48.0022L38.1264 48.11L38.1264 48.218L38.1264 48.3261L38.1264 48.4345L38.1264 48.5429L38.1264 48.6515L38.1264 48.7602L38.1264 48.8691L38.1264 48.9781L38.1264 49.0872L38.1264 49.1965L38.1264 49.3059L38.1264 49.4154L38.1264 49.525L38.1264 49.6348L38.1264 49.7446L38.1264 49.8546L38.1264 49.9647L38.1264 50.0749L38.1264 50.1852L38.1264 50.2956L38.1264 50.4061L38.1264 50.5167L38.1264 50.6274L38.1264 50.7382L38.1264 50.849L38.1264 50.96L38.1264 51.071L38.1264 51.1821L38.1264 51.2933L38.1264 51.4046L38.1264 51.5159L38.1264 51.6273L38.1264 51.7388L38.1264 51.8503L38.1264 51.9619L38.1264 52.0735L38.1264 52.1852L38.1264 52.2969L38.1264 52.4087L38.1264 52.5206L38.1264 52.6324L38.1264 52.7444L38.1264 52.8563L38.1264 52.9683L38.1264 53.0803L38.1264 53.1923L38.1264 53.3044L38.1264 53.4165L38.1264 53.5286L38.1264 53.6407L38.1264 53.7529L38.1264 53.865L38.1264 53.9772L38.1264 54.0894L38.1264 54.2015L38.1264 54.3137L38.1264 54.4259L38.1264 54.538L38.1264 54.6502L38.1264 54.7623L38.1264 54.8745L38.1264 54.9866L38.1264 55.0987L38.1264 55.2107L38.1264 55.3228L38.1264 55.4348L38.1264 55.5468Z" stroke="url(#paint0_radial_838_5718)" stroke-width="6"/>
<path d="M38.1259 95.1575L38.1259 95.1295C40.5755 98.7919 43.6847 101.975 47.2826 104.509C45.6731 105.319 43.8071 106.258 41.9879 107.175C40.6355 107.856 39.3071 108.525 38.1259 109.121L38.1259 109.117L38.1259 109.027L38.1259 108.937L38.1259 108.847L38.1259 108.756L38.1259 108.665L38.1259 108.574L38.1259 108.482L38.1259 108.39L38.1259 108.297L38.1259 108.205L38.1259 108.111L38.1259 108.018L38.1259 107.924L38.1259 107.83L38.1259 107.736L38.1259 107.641L38.1259 107.546L38.1259 107.451L38.1259 107.355L38.1259 107.259L38.1259 107.163L38.1259 107.066L38.1259 106.97L38.1259 106.872L38.1259 106.775L38.1259 106.677L38.1259 106.579L38.1259 106.481L38.1259 106.383L38.1259 106.284L38.1259 106.185L38.1259 106.085L38.1259 105.986L38.1259 105.886L38.1259 105.786L38.1259 105.685L38.1259 105.585L38.1259 105.484L38.1259 105.382L38.1259 105.281L38.1259 105.179L38.1259 105.077L38.1259 104.975L38.1259 104.873L38.1259 104.77L38.1259 104.668L38.1259 104.564L38.1259 104.461L38.1259 104.358L38.1259 104.254L38.1259 104.15L38.1259 104.046L38.1259 103.941L38.1259 103.837L38.1259 103.732L38.1259 103.627L38.1259 103.522L38.1259 103.416L38.1259 103.311L38.1259 103.205L38.1259 103.099L38.1259 102.993L38.1259 102.887L38.1259 102.78L38.1259 102.673L38.1259 102.567L38.1259 102.46L38.1259 102.352L38.1259 102.245L38.1259 102.138L38.1259 102.03L38.1259 101.922L38.1259 101.814L38.1259 101.706L38.1259 101.598L38.1259 101.489L38.1259 101.38L38.1259 101.272L38.1259 101.163L38.1259 101.054L38.1259 100.945L38.1259 100.835L38.1259 100.726L38.1259 100.617L38.1259 100.507L38.1259 100.397L38.1259 100.287L38.1259 100.177L38.1259 100.067L38.1259 99.9571L38.1259 99.8468L38.1259 99.7364L38.1259 99.6259L38.1259 99.5153L38.1259 99.4046L38.1259 99.2938L38.1259 99.1829L38.1259 99.072L38.1259 98.9609L38.1259 98.8498L38.1259 98.7387L38.1259 98.6274L38.1259 98.5161L38.1259 98.4047L38.1259 98.2932L38.1259 98.1817L38.1259 98.0701L38.1259 97.9585L38.1259 97.8468L38.1259 97.735L38.1259 97.6232L38.1259 97.5114L38.1259 97.3995L38.1259 97.2876L38.1259 97.1757L38.1259 97.0637L38.1259 96.9517L38.1259 96.8396L38.1259 96.7276L38.1259 96.6155L38.1259 96.5034L38.1259 96.3912L38.1259 96.2791L38.1259 96.1669L38.1259 96.0548L38.1259 95.9426L38.1259 95.8304L38.1259 95.7183L38.1259 95.6061L38.1259 95.4939L38.1259 95.3818L38.1259 95.2696L38.1259 95.1575Z" stroke="url(#paint1_radial_838_5718)" stroke-width="6"/>
<defs>
<radialGradient id="paint0_radial_838_5718" cx="0" cy="0" r="1" gradientUnits="userSpaceOnUse" gradientTransform="translate(67.7999 74.7055) rotate(-128.66) scale(38.0395 37.2024)">
<stop/>
<stop offset="1" stop-opacity="0"/>
</radialGradient>
<radialGradient id="paint1_radial_838_5718" cx="0" cy="0" r="1" gradientUnits="userSpaceOnUse" gradientTransform="translate(67.7995 75.3233) rotate(128.66) scale(38.0395 37.2024)">
<stop/>
<stop offset="1" stop-opacity="0"/>
</radialGradient>
</defs>
</svg>
